<?xml version="1.0" encoding="UTF-8" standalone="no"?>
<svg
   xmlns:dc="http://purl.org/dc/elements/1.1/"
   xmlns:cc="http://creativecommons.org/ns#"
   xmlns:rdf="http://www.w3.org/1999/02/22-rdf-syntax-ns#"
   xmlns:svg="http://www.w3.org/2000/svg"
   xmlns="http://www.w3.org/2000/svg"
   xmlns:sodipodi="http://sodipodi.sourceforge.net/DTD/sodipodi-0.dtd"
   xmlns:inkscape="http://www.inkscape.org/namespaces/inkscape"
   width="187.47217mm"
   height="113.21292mm"
   viewBox="0 0 187.47217 113.21292"
   version="1.1"
   id="svg8"
   inkscape:version="1.0.2-2 (e86c870879, 2021-01-15)"
   sodipodi:docname="ISS.svg">
  <defs
     id="defs2" />
  <sodipodi:namedview
     id="base"
     pagecolor="#ffffff"
     bordercolor="#666666"
     borderopacity="1.0"
     inkscape:pageopacity="0.0"
     inkscape:pageshadow="2"
     inkscape:zoom="0.98994949"
     inkscape:cx="352.61724"
     inkscape:cy="242.82624"
     inkscape:document-units="mm"
     inkscape:current-layer="layer1"
     inkscape:document-rotation="0"
     showgrid="false"
     fit-margin-top="0"
     fit-margin-left="0"
     fit-margin-right="0"
     fit-margin-bottom="0"
     inkscape:window-width="1267"
     inkscape:window-height="1040"
     inkscape:window-x="2074"
     inkscape:window-y="39"
     inkscape:window-maximized="0" />
  <metadata
     id="metadata5">
    <rdf:RDF>
      <cc:Work
         rdf:about="">
        <dc:format>image/svg+xml</dc:format>
        <dc:type
           rdf:resource="http://purl.org/dc/dcmitype/StillImage" />
        <dc:title />
      </cc:Work>
    </rdf:RDF>
  </metadata>
  <g
     inkscape:label="Layer 1"
     inkscape:groupmode="layer"
     id="layer1"
     transform="translate(-14.222074,-54.242278)">
    <path
       style="fill:#000000;fill-opacity:1;stroke-width:0.264583"
       d="m 15.75633,166.62879 c -0.06915,-0.23378 -0.128556,-2.36442 -0.132003,-4.73476 -0.0035,-2.37034 -0.06438,-12.21312 -0.135395,-21.87285 -0.07102,-9.65972 -0.06287,-17.71764 0.01812,-17.9065 0.216822,-0.5056 1.154706,-0.60258 5.981365,-0.61852 2.654656,-0.009 4.511481,0.11764 4.749606,0.32333 0.21502,0.18578 0.398829,0.68809 0.408426,1.11631 0.0096,0.42823 0.08629,10.44026 0.170436,22.24896 0.142911,20.05586 0.114567,21.49585 -0.430273,21.85721 -0.608508,0.4036 -9.175295,0.58191 -10.044695,0.20907 -0.252925,-0.10846 -0.516442,-0.38848 -0.585592,-0.62225 z m 5.68146,-1.84922 c 2.505724,-0.0111 2.787351,-0.071 2.808816,-0.59699 0.04551,-1.11545 -0.230429,-39.77831 -0.28512,-39.94839 -0.03091,-0.0962 -4.280361,-0.13101 -5.293002,-0.0434 -0.706727,0.0611 -0.651326,-2.37837 -0.485853,21.39452 0.06577,9.44928 0.118238,17.60097 0.116592,18.11486 -0.0016,0.51389 0.07724,0.96976 0.17531,1.01304 0.09812,0.0432 1.431534,0.0731 2.963257,0.0664 z m 6.756547,1.71486 c -0.06886,-0.23281 -0.173347,-6.85221 -0.232181,-14.7098 -0.219645,-29.33291 -0.218162,-29.49948 0.26627,-29.94017 0.30552,-0.27793 1.868461,-0.41915 4.89514,-0.44227 4.44324,-0.034 5.618092,0.15136 5.831405,0.91985 0.06236,0.22466 0.180304,10.25036 0.262106,22.27929 0.127596,18.76387 0.07882,21.94314 -0.34334,22.37987 -0.270636,0.27997 -0.594204,0.46523 -0.719049,0.41169 -0.124842,-0.0535 -2.134509,-0.0733 -4.465924,-0.0439 -4.30402,0.0542 -5.270038,-0.096 -5.494427,-0.85456 z m 6.69799,-1.83077 1.812368,-0.0517 -0.05853,-5.78283 c -0.0322,-3.18055 -0.09726,-12.27688 -0.144592,-20.21404 -0.04733,-7.93717 -0.09104,-14.4577 -0.09713,-14.49007 -0.0061,-0.0323 -1.30841,-0.0482 -2.894031,-0.0351 -2.169227,0.0179 -2.906819,0.13235 -2.979375,0.46224 -0.05304,0.24115 -0.03362,9.37788 0.04314,20.30386 l 0.13957,19.86542 1.183114,-0.003 c 0.650712,-0.002 1.998678,-0.0263 2.995479,-0.0548 z m 5.936619,2.18032 c -0.268515,-0.26496 -0.402815,-3.15618 -0.439077,-9.45238 -0.02873,-4.98887 -0.09813,-14.92003 -0.154207,-22.06927 -0.0823,-10.49191 -0.0155,-13.0937 0.346393,-13.49175 0.356355,-0.39195 1.386483,-0.49662 5.020145,-0.5101 2.514484,-0.009 4.831022,0.0942 5.147862,0.23009 0.388096,0.16643 0.59614,0.52476 0.637571,1.09815 0.0603,0.83461 0.310041,29.28609 0.341222,38.87436 0.0116,3.56809 -0.09261,4.98349 -0.389977,5.29672 -0.291573,0.30712 -1.739387,0.43912 -5.142903,0.46889 -2.605392,0.0228 -4.791784,0.0179 -4.858639,-0.0108 -0.06686,-0.0287 -0.295645,-0.22395 -0.50839,-0.43394 z m 5.253184,-2.21996 c 1.651879,-0.0209 2.909701,-0.17606 2.940823,-0.36267 0.02991,-0.17934 0.03471,-2.87489 0.01066,-5.99013 -0.02405,-3.11523 -0.05476,-7.35292 -0.06824,-9.41709 -0.01348,-2.06418 -0.05543,-8.46244 -0.09322,-14.21837 -0.03778,-5.75594 -0.177177,-10.51186 -0.309759,-10.56872 -0.221969,-0.0952 -5.631818,-0.11176 -5.672295,-0.0174 -0.09427,0.21982 0.180921,40.55749 0.276973,40.59868 0.01573,0.007 1.327513,-0.004 2.915056,-0.0243 z m 7.023544,1.91134 c -0.143627,-0.25951 -0.310617,-8.26598 -0.371086,-17.79215 -0.06047,-9.52618 -0.125789,-19.38808 -0.145163,-21.91533 -0.02332,-3.04307 0.08898,-4.75803 0.332516,-5.07771 0.286956,-0.37667 1.241341,-0.49055 4.344428,-0.51838 5.234596,-0.047 5.571591,-0.0257 6.11073,0.38501 0.518659,0.39512 0.471416,-1.46896 0.663887,26.19521 0.09613,13.81652 0.02785,18.56487 -0.271536,18.88404 -0.286541,0.30547 -1.744705,0.4404 -5.142382,0.47585 -2.608337,0.0272 -4.858942,0.001 -5.001346,-0.0576 -0.142403,-0.0589 -0.376427,-0.3194 -0.520048,-0.57893 z m 5.603027,-2.00383 c 1.384772,0.002 2.574177,-0.12866 2.643126,-0.28944 0.115271,-0.2688 -0.07973,-39.90036 -0.197896,-40.21982 -0.05314,-0.14367 -5.791492,-0.19 -5.852708,-0.0473 -0.04016,0.0936 -0.02461,9.08997 0.02483,14.36406 0.0363,3.87301 0.173607,23.50843 0.176344,25.21896 8.61e-4,0.5376 0.152987,0.96355 0.345036,0.96608 0.188934,0.002 1.476493,0.006 2.861265,0.007 z M 82.37274,144.50111 c -0.957813,-1.41754 -1.763144,-2.78274 -1.789622,-3.03378 -0.04185,-0.3968 2.507909,-4.53486 3.506792,-5.69124 0.414444,-0.47979 0.887784,-0.50694 9.081281,-0.52104 4.933597,-0.008 6.986359,0.0981 7.281339,0.37817 0.28939,0.27474 0.4216,1.94726 0.44736,5.6593 0.0325,4.67714 -0.0232,5.3082 -0.49533,5.61539 -0.31513,0.20505 -3.353466,0.35972 -7.455503,0.37954 -3.80799,0.0184 -7.161279,0.0631 -7.451763,0.0993 -0.939736,0.11725 -1.354041,-0.2654 -3.124554,-2.88567 z m 8.172071,0.13904 c 1.476835,-0.0119 2.791076,-0.0637 2.920523,-0.11502 0.185788,-0.0737 0.445752,-6.04777 0.282965,-6.50282 -0.07579,-0.21186 -5.984948,-0.0802 -6.178692,0.1377 -0.105724,0.11889 -0.180629,1.29738 -0.166468,2.61889 0.01417,1.3215 0.01545,2.68979 0.0029,3.04065 -0.01259,0.35085 0.08433,0.6839 0.215378,0.7401 0.131057,0.0562 1.446596,0.0924 2.92344,0.0805 z m -5.803338,-3.49483 c -0.02097,-1.34182 -0.04884,-1.39637 -0.457548,-0.89576 -0.762625,0.9341 -0.807181,1.22697 -0.290377,1.9088 0.277909,0.36665 0.564907,0.6102 0.637774,0.54121 0.07286,-0.069 0.122435,-0.7684 0.110151,-1.55425 z m 12.677233,3.44114 0.862452,-0.0623 -0.03601,-3.24081 c -0.0198,-1.78246 -0.02459,-3.26742 -0.01064,-3.29994 0.01395,-0.0325 -0.352004,-0.0854 -0.813197,-0.11767 -0.461205,-0.0322 -0.870009,0.0125 -0.90845,0.0992 -0.111691,0.25283 -0.165222,6.59434 -0.05579,6.64127 0.05459,0.0234 0.487289,0.0145 0.961636,-0.0198 z m 7.263514,9.80819 c -0.15193,-0.45461 -0.44288,-2.30938 -0.64654,-4.12173 -0.30414,-2.70642 -0.47229,-3.34297 -0.94115,-3.5627 -0.31395,-0.14715 -0.68435,-0.33831 -0.82304,-0.42488 -0.1387,-0.0866 -0.29219,-6.94347 -0.34108,-15.23756 -0.0489,-8.2941 -0.0992,-15.11714 -0.11174,-15.16233 -0.0126,-0.0452 -3.003818,-0.0534 -6.647237,-0.0183 -10.978034,0.10583 -19.535536,0.18119 -33.352429,0.2937 -7.229599,0.0589 -18.369324,0.15033 -24.754942,0.20323 -6.385619,0.0529 -11.877396,-0.0184 -12.203947,-0.15842 -0.771561,-0.33087 -0.785363,-0.40991 -0.833245,-4.77603 -0.05282,-4.81607 0.129382,-5.24872 2.15709,-5.12194 0.610517,0.0382 3.908168,0.0395 7.328115,0.003 14.952285,-0.15997 30.457971,-0.30015 33.380266,-0.30176 8.383372,-0.005 34.400709,-0.27403 34.621849,-0.35848 0.1379,-0.0527 0.23062,-2.75647 0.20604,-6.00845 -0.0246,-3.251978 0.0614,-6.164707 0.19105,-6.472728 0.15539,-0.369196 0.54435,-0.594815 1.14134,-0.662089 0.49808,-0.05613 0.93552,-0.169916 0.97209,-0.252857 0.14891,-0.337584 0.0229,-2.833681 -0.1467,-2.906398 -0.57566,-0.246869 -5.378476,0.04864 -5.428336,0.334002 -0.03226,0.184665 -0.0458,2.59049 -0.03006,5.34628 0.02316,4.05651 -0.05926,5.09005 -0.432871,5.42815 -0.55489,0.50216 -6.599492,0.55195 -7.232733,0.0596 -0.497922,-0.38716 -0.462485,0.51748 -0.557197,-14.225396 -0.05357,-8.339126 0.03584,-12.18076 0.290346,-12.4754 0.202261,-0.23416 0.845344,-0.428564 1.429064,-0.432013 3.903744,-0.02306 5.597498,0.07514 5.944073,0.344612 0.278464,0.216517 0.407245,2.13248 0.431121,6.414026 0.01872,3.357905 0.07212,6.20557 0.118653,6.328146 0.06951,0.183098 4.98674,0.282729 5.42461,0.109912 0.18104,-0.07145 0.22837,-3.173722 0.0522,-3.424595 -0.078,-0.11103 -0.47892,-0.215936 -0.89101,-0.233214 -0.48027,-0.02009 -0.86904,-0.18118 -1.08286,-0.448683 -0.39132,-0.489632 -0.57753,-15.495596 -0.20311,-16.368688 0.13722,-0.319975 0.48777,-0.608769 0.77901,-0.641762 0.46309,-0.05246 0.40673,-0.376428 -0.44914,-2.581977 -1.79741,-4.631858 -2.067355,-5.47961 -1.88228,-5.911173 0.36351,-0.847658 0.43098,-0.851684 11.03843,-0.658643 2.92805,0.05329 3.12629,0.09192 3.52031,0.685986 0.41038,0.618739 0.38989,0.693986 -1.1964,4.392999 l -1.61393,3.763479 0.82131,0.352212 c 0.45172,0.193716 0.87033,0.53517 0.93025,0.758787 0.23551,0.878926 0.14411,15.279227 -0.1006,15.849858 -0.2323,0.541705 -0.51418,0.663395 -2.04641,0.883476 -0.0873,0.01252 -0.095,3.274472 -0.008,3.49141 0.0239,0.05977 0.81303,0.09756 1.75363,0.08396 0.94062,-0.01359 2.25102,-0.02706 2.91201,-0.02993 l 1.2018,-0.0052 -0.0357,-5.876837 c -0.0233,-3.834569 0.0882,-6.036192 0.32085,-6.33539 0.26314,-0.338433 1.16089,-0.460198 3.42695,-0.464812 3.46501,-0.0071 4.10226,0.166154 4.26779,1.16004 0.0639,0.383658 0.15011,6.264658 0.19159,13.068883 0.0633,10.392738 -9.3e-4,12.440767 -0.40192,12.805537 -0.60806,0.55317 -6.62265,0.63113 -7.24457,0.0939 -0.29657,-0.25618 -0.42825,-1.901914 -0.46137,-5.766364 -0.0255,-2.974327 -0.0971,-5.548953 -0.1591,-5.721389 -0.1021,-0.283881 -4.69624,-0.433224 -5.48929,-0.178443 -0.181,0.05814 -0.30473,0.603012 -0.30271,1.332874 0.005,1.666263 0.0691,1.801053 0.8302,1.735223 1.53561,-0.132819 1.64102,0.304037 1.66412,6.89649 0.0119,3.411859 0.10326,6.238349 0.20289,6.281069 0.0996,0.0427 5.68544,0.029 12.41293,-0.0304 6.72748,-0.0595 18.99131,-0.16171 27.25294,-0.22721 15.0532,-0.11936 26.61731,-0.22063 33.37202,-0.29224 2.82963,-0.03 3.71431,0.0597 4.08923,0.41453 0.36455,0.34503 0.4874,1.37923 0.51606,4.34469 0.0496,5.13462 -0.13336,5.52897 -2.49616,5.37884 -0.60324,-0.0383 -4.35026,-0.0353 -8.32669,0.007 -7.17206,0.0757 -15.20266,0.14678 -38.29027,0.33895 -6.59454,0.0549 -15.69556,0.13091 -20.22447,0.16892 -4.52893,0.038 -8.2742,0.0823 -8.32282,0.0984 -0.0486,0.0161 -0.0555,4.43554 -0.0152,9.82094 0.0402,5.38541 0.0879,12.0754 0.10589,14.86665 0.018,2.79126 -0.0537,5.27651 -0.15932,5.52279 -0.10561,0.24629 -0.44587,0.56424 -0.75613,0.70658 -0.5168,0.23708 -0.60014,0.58079 -0.99345,4.09698 -0.23614,2.111 -0.57654,3.98955 -0.75649,4.17455 -0.31021,0.31894 -4.6395,0.58234 -5.9947,0.36473 -0.46298,-0.0743 -0.70886,-0.32509 -0.91053,-0.92841 z m 3.82943,-1.68014 0.94225,-0.0876 0.28417,-2.61306 c 0.1563,-1.43718 0.29271,-2.76451 0.30315,-2.94964 0.0221,-0.39136 -3.40236,-0.48349 -3.56853,-0.096 -0.19419,0.45283 0.54459,5.6212 0.81861,5.72682 0.15292,0.0591 0.70211,0.0677 1.22035,0.0195 z M 30.401379,113.76804 c 1.724213,-0.008 3.056343,-0.084 2.960291,-0.16846 -0.330315,-0.29049 -6.446106,-3.65497 -6.563062,-3.61054 -0.241042,0.0916 -0.04731,3.57296 0.204845,3.6811 0.144645,0.062 1.673711,0.10608 3.397926,0.0979 z m 77.902161,30.29975 c 1.64041,-0.0118 3.05513,-0.0504 3.14382,-0.0858 0.16537,-0.0661 0.18448,-13.54829 0.0199,-14.04909 -0.0847,-0.25772 -6.01044,-0.42098 -6.61795,-0.18233 -0.14979,0.0588 -0.25228,2.82487 -0.22776,6.14676 0.0245,3.32188 0.0451,6.46102 0.0457,6.97587 6.1e-4,0.51487 0.14794,0.99908 0.32742,1.07605 0.17947,0.077 1.66847,0.13032 3.30889,0.11857 z M 37.267506,112.32226 c 0.05572,-0.12992 0.0933,-0.9465 0.08352,-1.81461 l -0.01779,-1.57839 -3.051169,0.019 c -1.678141,0.0105 -3.017039,0.10704 -2.975329,0.21463 0.04172,0.10755 1.137695,0.79428 2.435522,1.52599 3.220734,1.81585 3.409482,1.9033 3.525245,1.63335 z m 8.216325,1.30532 c 2.78282,-0.0221 5.095714,-0.12423 5.139761,-0.22694 0.04405,-0.10273 0.05791,-1.1736 0.03079,-2.37973 l -0.0493,-2.19297 -2.251155,0.005 c -5.187254,0.0117 -7.764277,0.07 -8.057529,0.18244 -0.34509,0.13232 -0.419119,4.41781 -0.07883,4.56374 0.113625,0.0487 2.483442,0.0705 5.26626,0.0484 z m 13.172031,-0.10026 c 2.767037,-0.0241 5.094701,-0.0635 5.172591,-0.0877 0.110363,-0.0343 0.204123,-4.16353 0.104651,-4.60831 -0.04267,-0.19077 -10.454089,-0.0752 -10.536494,0.11694 -0.149319,0.34819 -0.08098,4.49016 0.0752,4.55713 0.08419,0.0361 2.417015,0.046 5.184057,0.0219 z m 11.604584,-0.10015 c 1.544735,-0.002 2.837568,-0.0715 2.872964,-0.15407 0.03539,-0.0825 -0.806175,-0.61235 -1.870163,-1.17736 -1.063995,-0.56498 -2.535423,-1.36262 -3.269856,-1.77248 l -1.335328,-0.74523 -0.0244,1.902 c -0.01783,1.39036 0.08893,1.9086 0.396893,1.92656 0.231709,0.0135 1.685163,0.0228 3.229894,0.0206 z m 37.940104,13.56818 c 1.70654,-0.0103 3.14446,-0.11582 3.19536,-0.23452 0.17096,-0.39865 0.0298,-11.00031 -0.14877,-11.17573 -0.40667,-0.39943 -0.57202,-1.24104 -0.34694,-1.76588 0.30328,-0.70721 0.77424,-0.77661 5.22415,-0.76975 1.97791,0.003 3.65595,-0.0145 3.72898,-0.0391 0.10745,-0.0362 0.20444,-4.2148 0.10761,-4.63763 -0.0149,-0.0654 -1.69344,-0.0956 -3.72993,-0.0671 -2.03648,0.0285 -4.01113,-0.0132 -4.3881,-0.0927 -0.89657,-0.18896 -1.24567,-1.0717 -0.81812,-2.06869 0.24124,-0.56254 0.4626,-10.304652 0.24921,-10.967738 -0.0426,-0.132322 -6.23779,-0.134374 -6.59977,-0.0022 -0.17855,0.0652 -0.29779,2.287255 -0.28458,5.303458 0.0217,4.96301 0.0533,5.20815 0.71777,5.57603 0.89512,0.49558 1.03291,1.2549 0.34182,1.88359 -0.38901,0.35388 -1.54996,0.46557 -4.78815,0.46064 -2.351037,-0.004 -4.398005,0.0333 -4.548808,0.0819 -0.3562,0.11493 -0.35461,4.44675 0.0017,4.59955 0.149351,0.064 2.050311,0.10196 4.224348,0.0842 2.17404,-0.0177 4.2277,0.0857 4.56369,0.22979 0.82172,0.35238 0.87834,1.53269 0.10324,2.15218 -0.56373,0.45056 -0.5513,0.1934 -0.46258,9.56902 0.009,0.91414 0.13708,1.71547 0.28541,1.7807 0.14812,0.0657 1.66594,0.11019 3.37247,0.0999 z m -2.8032,-14.24138 c -1.74282,-2.45091 0.37292,-5.87687 3.37607,-5.46677 1.18042,0.1612 1.91559,0.69028 2.60162,1.87233 1.06623,1.83714 0.0256,4.18127 -2.17503,4.89934 -1.42526,0.46508 -2.90517,-0.0428 -3.80266,-1.3049 z m 3.4927,-1.75503 c 0.3132,-0.54689 0.27631,-0.67072 -0.26889,-0.90453 -0.73605,-0.31565 -1.29478,0.12306 -1.08026,0.84824 0.22207,0.75077 0.93446,0.7805 1.34915,0.0563 z m -31.606849,-0.45868 c -0.0095,-0.91142 -0.04068,-1.71755 -0.06918,-1.7914 -0.02852,-0.0738 -1.515295,-0.12847 -3.303982,-0.12139 -2.459677,0.01 -3.11297,0.0973 -2.680987,0.35927 1.740832,1.05577 5.698266,3.22556 5.870483,3.21868 0.110547,-0.004 0.193205,-0.75373 0.183662,-1.66516 z m 7.717253,2.70663 c 0.232163,-0.0835 0.33835,-3.85515 0.123889,-4.4003 -0.06242,-0.15869 -1.233503,-0.28781 -2.602395,-0.28694 -2.809468,0.002 -2.623343,-0.21227 -2.570648,2.95658 l 0.03017,1.81411 2.39336,8e-5 c 1.316354,3e-5 2.497885,-0.0376 2.625627,-0.0835 z m 7.89046,-0.11787 c 0.19086,-0.0748 0.317623,-0.84245 0.319114,-1.93249 0.004,-2.89369 0.207164,-2.69332 -2.732551,-2.69464 l -2.595235,-0.001 0.0033,1.02956 c 0.0018,0.56627 0.0023,1.63406 0.0011,2.37288 l -0.0022,1.3433 2.344886,0.003 c 1.289688,0.002 2.487376,-0.0525 2.661529,-0.1208 z m 32.194976,-0.15096 c 1.29792,9e-4 2.4722,-0.0152 2.6095,-0.0357 0.22119,-0.0331 0.35132,-4.05017 0.1477,-4.55953 -0.0674,-0.16852 -4.63084,-0.26363 -5.03298,-0.10489 -0.12444,0.0491 -0.26122,4.6225 -0.13979,4.67458 0.0306,0.0131 1.11766,0.0246 2.41557,0.0255 z M 94.367786,98.188867 c 0.684833,-0.04245 1.27962,-0.08738 1.321749,-0.09983 0.04211,-0.01241 0.05908,-2.806951 0.03767,-6.20998 -0.07224,-11.481885 -0.107416,-15.71673 -0.131042,-15.777479 -0.06845,-0.17599 -2.779632,-0.01802 -2.787509,0.162415 -0.05099,1.167956 0.165773,21.938506 0.229235,21.965721 0.0466,0.01999 0.645064,0.0016 1.329896,-0.04085 z M 133.2824,112.91124 c 2.81694,-0.0729 2.56642,0.22988 2.51401,-3.03826 -0.0147,-0.91675 -0.0636,-1.68261 -0.10856,-1.70191 -0.10387,-0.0445 -4.89983,-0.0404 -5.04077,0.004 -0.1096,0.0348 -0.0407,4.7258 0.0701,4.77331 0.0349,0.015 1.18928,-0.002 2.56519,-0.0375 z m 10.5786,-0.094 c 2.61991,-0.0171 4.87731,-0.0703 5.01645,-0.11818 0.29834,-0.10266 0.36875,-4.4597 0.0742,-4.59295 -0.4279,-0.19362 -10.26846,0.002 -10.35588,0.20611 -0.24941,0.58159 -0.0856,4.53343 0.18803,4.5347 0.17255,7.7e-4 2.45728,-0.0126 5.07719,-0.0297 z m 11.45786,-0.0981 c 1.56548,-0.0324 2.70677,-0.17952 2.53622,-0.32698 -0.4103,-0.35473 -5.82522,-3.30321 -5.96428,-3.24762 -0.26271,0.10501 -0.0104,3.37954 0.26961,3.49963 0.17166,0.0736 1.59296,0.10735 3.15845,0.075 z M 121.57978,98.663764 c 0.82004,1.32e-4 1.35175,-0.138756 1.35588,-0.354173 0.0482,-2.514314 -0.15312,-21.216353 -0.23076,-21.433126 -0.0817,-0.228119 -2.63186,-0.558569 -2.72024,-0.352487 -0.011,0.02553 0.002,2.572287 0.0299,5.659462 0.0274,3.087172 0.0582,8.045664 0.0684,11.01887 0.0102,2.973205 0.0476,5.418296 0.0832,5.433533 0.0356,0.01525 0.67168,0.0278 1.41368,0.02792 z m -13.71504,-6.293018 0.98689,0.0092 -0.0502,-4.285672 c -0.0276,-2.357121 -0.0487,-4.446975 -0.0469,-4.644122 0.002,-0.197147 -0.0893,-0.398146 -0.20243,-0.446666 -0.40374,-0.173141 -1.68818,-0.05101 -1.78275,0.169511 -0.1185,0.276323 -0.0965,9.100595 0.0228,9.151761 0.0471,0.02022 0.5298,0.0409 1.07258,0.04597 z m 54.40285,19.146204 c 0.18137,-0.42293 0.0708,-3.43241 -0.12943,-3.52131 -0.30263,-0.13435 -6.40243,-0.0645 -6.34758,0.0727 0.0375,0.0938 3.49704,2.09767 6.08466,3.52437 0.16007,0.0883 0.33663,0.0542 0.39235,-0.0758 z m 8.21886,1.06826 c 2.7308,-0.017 5.01661,-0.0516 5.07957,-0.0768 0.17954,-0.0718 0.11088,-4.60954 -0.0704,-4.65004 -0.089,-0.0199 -2.48114,-0.0282 -5.31594,-0.0185 -4.81317,0.0165 -5.15535,0.058 -5.17192,0.62771 -0.0598,2.05772 0.0692,3.95805 0.27463,4.04616 0.13141,0.0563 2.47321,0.0885 5.20401,0.0715 z m 10.95291,-0.073 c 1.49379,-0.004 2.84289,-0.0565 2.99801,-0.11595 0.15513,-0.0595 -1.09307,-0.861 -2.77377,-1.78122 -1.68069,-0.92021 -3.13025,-1.64335 -3.22123,-1.60698 -0.22495,0.0899 -0.13269,3.33459 0.0976,3.43336 0.10087,0.0433 1.40559,0.0751 2.89936,0.0708 z M 110.9682,79.94788 c 0.17918,-0.255885 0.21293,-11.231328 0.0359,-11.67421 -0.0881,-0.220524 -6.66838,-0.236362 -6.76276,-0.01627 -0.0722,0.168281 -0.0679,11.287556 0.005,11.771789 0.0512,0.342538 6.47996,0.264786 6.72231,-0.08131 z m 78.01546,29.70308 c -0.0283,-1.21029 -0.17634,-1.84791 -0.44291,-1.90841 -0.53175,-0.12067 -5.69963,-0.0712 -6.06812,0.0581 -0.15876,0.0557 0.64846,0.5901 1.79381,1.18755 1.14535,0.59746 2.17555,1.17129 2.28933,1.2752 0.11377,0.10391 0.71618,0.41757 1.33868,0.69702 l 1.13181,0.50809 -0.0426,-1.81756 z m -81.2756,-44.274845 1.23463,-0.02591 1.35921,-3.169508 1.35922,-3.169508 -1.49222,-0.04474 c -2.76187,-0.08281 -6.35705,-0.110478 -6.51294,-0.05013 -0.21967,0.08505 2.2639,6.262288 2.56694,6.384596 0.13779,0.05561 0.80611,0.08945 1.48516,0.0752 z M 153.41071,165.918 c -0.11951,-0.17479 -0.23231,-2.58545 -0.25066,-5.357 -0.0346,-5.22181 -0.11715,-17.60044 -0.20632,-30.92287 -0.0504,-7.5244 0.0785,-8.86424 0.86513,-8.99305 0.99968,-0.16371 9.29163,-0.13828 9.6833,0.0297 0.24408,0.10468 0.49767,0.37536 0.56354,0.60153 0.0659,0.22617 0.19056,10.26833 0.2771,22.31593 0.1117,15.54844 0.0486,22.04749 -0.21747,22.39674 -0.25777,0.33835 -0.84715,0.48991 -1.88716,0.48525 -0.83179,-0.004 -2.96204,0.006 -4.73393,0.0222 -3.30359,0.0297 -3.71776,-0.0288 -4.09353,-0.57841 z m 5.42226,-2.08655 c 1.50798,-0.008 2.79616,-0.0318 2.86263,-0.0526 0.18882,-0.059 -0.10446,-39.87042 -0.29828,-40.48836 -0.0635,-0.20245 -5.58839,-0.0694 -5.67677,0.1367 -0.13727,0.32009 -0.13776,1.97423 -0.006,20.9487 0.0655,9.4379 0.10701,17.64968 0.0923,18.24841 -0.0147,0.59872 0.0433,1.1186 0.12887,1.15529 0.0856,0.0367 1.38935,0.06 2.89734,0.0519 z m -43.28584,-18.45167 c -0.43595,-0.87315 -0.44107,-9.93988 -0.006,-10.69703 0.3019,-0.52539 0.80874,-0.5977 4.38519,-0.62547 19.18678,-0.14895 20.82194,-0.13135 21.47873,0.2312 0.65748,0.36291 0.69115,0.62406 0.71893,5.57464 0.0181,3.2343 -0.10058,5.36417 -0.31471,5.64523 -0.27333,0.35879 -2.94387,0.46832 -13.02139,0.53405 -6.97265,0.0455 -12.73224,0.0592 -12.79909,0.0306 -0.0668,-0.0286 -0.26558,-0.3406 -0.44162,-0.69318 z m 8.64706,-1.97449 c 3.14135,-0.0331 5.7412,-0.13119 5.77746,-0.21807 0.0364,-0.0868 -0.17659,-0.47801 -0.47299,-0.86918 -0.84063,-1.10944 -0.8523,-2.98737 -0.0277,-4.46853 l 0.68031,-1.22207 -1.64267,0.0222 c -0.90346,0.0122 -3.62392,0.0353 -6.04545,0.0514 -2.42154,0.0161 -4.43987,0.11566 -4.48519,0.22133 -0.22928,0.53466 -0.0302,6.52863 0.21706,6.5353 0.15822,0.004 2.85788,-0.0193 5.99922,-0.0523 z m 9.37305,-1.88517 c 1.35527,-0.54174 1.43621,-2.26295 0.13271,-2.82195 -0.80913,-0.34698 -1.79769,-0.009 -2.11127,0.72259 -0.29928,0.69788 0.13742,1.88558 0.79734,2.16858 0.26748,0.11471 0.79903,0.0836 1.18122,-0.0692 z m 4.29882,1.80619 c 0.77442,-0.005 1.45193,-0.0226 1.50558,-0.0389 0.11563,-0.0352 0.11577,-6.19986 1.4e-4,-6.51144 -0.0438,-0.11789 -0.85333,-0.19972 -1.79906,-0.18186 l -1.71952,0.0325 0.6658,0.90814 c 1.01847,1.38916 1.10917,2.66428 0.3061,4.3035 -0.36867,0.75262 -0.60247,1.39727 -0.51873,1.43289 0.0834,0.0355 0.78526,0.0603 1.55968,0.0552 z M 14.854832,100.88469 c -0.299378,-0.3677 -0.429697,-1.815324 -0.436304,-4.846637 -0.0052,-2.37729 -0.03055,-6.663279 -0.05639,-9.524425 -0.19065,-21.118394 -0.186969,-29.766999 0.01287,-30.232997 0.127257,-0.296748 0.427655,-0.597601 0.667551,-0.668565 1.086711,-0.321454 9.10607,-0.187032 9.738383,0.163239 0.621721,0.344406 0.674206,0.636753 0.688302,3.83401 0.01707,3.872576 0.118028,18.37899 0.152721,21.94484 0.114057,11.723488 0.08811,18.782395 -0.07041,19.152025 -0.252361,0.58847 -0.951759,0.68436 -5.046842,0.69191 -1.901553,0.004 -3.854637,0.007 -4.340184,0.009 -0.691694,0.002 -0.975233,-0.11124 -1.309698,-0.52205 z m 7.939295,-2.250467 c 0.158314,-0.06073 0.233595,-7.306104 0.167292,-16.100833 -0.0663,-8.794729 -0.129285,-17.788022 -0.13996,-19.98509 -0.01067,-2.197085 -0.123348,-4.095796 -0.250396,-4.219366 -0.278054,-0.270445 -5.3258,-0.235059 -5.569558,0.03904 -0.133318,0.149913 0.0079,39.253884 0.145119,40.17109 0.03289,0.219948 5.099637,0.305306 5.647507,0.09515 z M 165.65096,165.13839 c -0.0325,-0.44974 -0.12736,-10.36851 -0.2108,-22.04172 -0.10883,-15.22215 -0.0438,-21.42059 0.22993,-21.91909 0.36352,-0.66196 0.6132,-0.69671 5.24905,-0.73036 3.79383,-0.0275 4.95628,0.0609 5.27041,0.4008 0.56868,0.61538 0.88633,44.33133 0.32745,45.06495 -0.21215,0.27853 -0.60303,0.49334 -0.86856,0.4774 -0.26554,-0.016 -2.35367,-0.0101 -4.64027,0.0129 -2.28663,0.0231 -4.41413,-0.0681 -4.72781,-0.20265 -0.37633,-0.16139 -0.59041,-0.52269 -0.6294,-1.06226 z m 5.63257,-1.39708 c 1.46123,-0.006 2.71937,-0.0359 2.79586,-0.0665 0.0766,-0.0306 0.11919,-3.02487 0.0949,-6.65395 -0.0895,-13.34395 -0.19322,-27.76159 -0.22164,-30.80113 -0.0168,-1.80222 -0.1647,-3.12507 -0.34953,-3.12716 -3.74396,-0.0423 -5.38144,0.0502 -5.49308,0.31055 -0.12405,0.28926 -0.13337,3.72706 -0.0416,15.35149 0.0169,2.14481 0.0636,8.6099 0.10381,14.36686 0.0402,5.75696 0.15888,10.504 0.26381,10.549 0.10493,0.045 1.38632,0.0769 2.84754,0.0709 z M 27.017684,100.50544 c -0.286512,-0.898019 -0.498221,-43.677624 -0.219367,-44.327873 0.135057,-0.314935 0.428419,-0.621403 0.651914,-0.681037 0.650059,-0.173454 9.29218,-0.124376 9.706913,0.05512 0.206987,0.08963 0.44677,0.339021 0.532819,0.554282 0.08605,0.215263 0.229159,10.248041 0.318024,22.295062 0.118677,16.08846 0.05791,22.039756 -0.228888,22.416216 -0.32148,0.42199 -1.234494,0.51515 -5.167748,0.52733 -2.627505,0.008 -4.919069,-0.046 -5.092366,-0.12032 -0.173295,-0.0743 -0.39888,-0.39777 -0.501301,-0.71878 z m 5.807542,-1.833978 c 1.382052,0.0023 2.544334,-0.06467 2.582853,-0.148886 0.110423,-0.241507 -0.188516,-39.886905 -0.303119,-40.194887 -0.08784,-0.236051 -5.077889,-0.405041 -5.615428,-0.190167 -0.247139,0.09879 -0.258249,2.134819 -0.125157,22.936694 0.08648,13.516286 0.207811,17.535664 0.530091,17.560635 0.229856,0.01784 1.548711,0.03429 2.93076,0.03661 z M 178.06949,165.41718 c -0.0688,-0.23262 -0.11298,-0.73737 -0.0982,-1.12167 0.0148,-0.38429 -0.0204,-7.00214 -0.0783,-14.70632 -0.20268,-26.97916 -0.19693,-27.80247 0.19895,-28.51649 0.35633,-0.64267 0.64134,-0.68524 4.85919,-0.7257 2.46436,-0.0236 4.82611,0.10089 5.24833,0.27673 l 0.76765,0.31973 0.0632,6.57653 c 0.30319,31.53436 0.26971,37.94129 -0.20045,38.36428 -0.3394,0.30535 -1.77411,0.42491 -5.04049,0.42003 -4.65207,-0.007 -5.49849,-0.13822 -5.72001,-0.88709 z m 5.54714,-1.76034 c 1.36994,0.008 2.6092,-0.0229 2.75389,-0.0685 0.19698,-0.062 0.14165,-38.27479 -0.0583,-40.24231 -0.0261,-0.25724 -0.87974,-0.34787 -2.96795,-0.31511 l -2.93125,0.046 -0.009,2.20508 c -0.01,2.25027 0.22229,35.91606 0.25731,37.36958 0.0106,0.43997 0.11952,0.84293 0.24204,0.89548 0.12251,0.0525 1.34362,0.10197 2.71357,0.10985 z m 7.13555,2.19546 c -0.4087,-0.32116 -0.80102,-43.87062 -0.40356,-44.79746 0.13837,-0.32266 0.3301,-0.61802 0.42602,-0.65638 0.48501,-0.19387 9.40789,-0.11527 9.87963,0.087 0.30354,0.13017 0.59838,0.54569 0.66066,0.93106 0.0619,0.38279 0.16285,8.94393 0.22443,19.02476 0.0616,10.08084 0.12869,19.80613 0.14913,21.61178 0.0303,2.67692 -0.051,3.36317 -0.44034,3.71736 -0.34492,0.31376 -1.79935,0.44158 -5.23802,0.46032 -2.61828,0.0143 -4.79409,-0.004 -4.83513,-0.0395 -0.041,-0.036 -0.23131,-0.18853 -0.42282,-0.33901 z m 5.07465,-2.27343 c 1.49029,-0.0132 2.82258,-0.0629 2.96063,-0.11032 0.13805,-0.0474 0.23661,-1.44703 0.21902,-3.11024 -0.0176,-1.66321 -0.0731,-9.65347 -0.12337,-17.75613 -0.10926,-17.61156 -0.14705,-19.48466 -0.39533,-19.59114 -0.10507,-0.045 -1.42454,-0.0747 -2.93216,-0.066 -2.48993,0.0145 -2.74314,0.0708 -2.76317,0.61433 -0.0121,0.32912 0.003,3.78309 0.0337,7.67551 0.10171,12.91047 0.11269,14.52314 0.15977,23.45926 0.0257,4.87991 0.0658,8.88071 0.089,8.89068 0.0233,0.01 1.26161,0.007 2.75191,-0.006 z M 39.479947,100.65674 c -0.32275,-0.47243 -0.57017,-43.855057 -0.254311,-44.5916 0.323376,-0.754069 0.593106,-0.787587 6.343287,-0.788233 3.101137,-3.49e-4 3.928538,0.08997 4.270796,0.466199 0.275358,0.302692 0.42751,1.365256 0.433073,3.024413 0.0047,1.40678 0.03728,6.197456 0.07236,10.645948 0.224057,28.411552 0.212047,30.820513 -0.156053,31.303693 -0.304318,0.39946 -1.294298,0.50035 -5.102819,0.52002 -4.772266,0.0246 -5.224952,-0.0222 -5.606333,-0.58044 z m 5.429815,-2.07526 c 1.494492,-0.006 2.779056,-0.03539 2.854587,-0.06534 0.07553,-0.02996 0.127798,-0.806145 0.116154,-1.72487 -0.04368,-3.446119 -0.137192,-16.490587 -0.19516,-27.222946 -0.033,-6.110144 -0.09823,-11.222776 -0.144947,-11.361403 -0.04672,-0.138625 -1.349763,-0.251312 -2.895655,-0.250404 -2.602729,0.0015 -2.818335,0.04912 -2.913732,0.643222 -0.05666,0.352869 -0.05005,8.524584 0.01469,18.15936 0.150115,22.340272 0.141123,21.701492 0.306476,21.772773 0.07718,0.03327 1.363097,0.05559 2.857587,0.04961 z m 6.821968,1.57755 c -0.06135,-0.709295 -0.131053,-6.768226 -0.200484,-17.42598 -0.03155,-4.842825 -0.08503,-12.703457 -0.118838,-17.468079 -0.04229,-5.959207 0.05622,-8.876464 0.315652,-9.347052 0.357599,-0.64868 0.630684,-0.685221 5.273737,-0.705725 3.837204,-0.01695 4.983136,0.0735 5.296563,0.418036 0.229549,0.252333 0.392929,1.21871 0.383455,2.268103 -0.0091,1.005643 0.01563,5.728687 0.05491,10.495654 0.03928,4.766967 0.08052,11.002994 0.09164,13.85784 0.01113,2.85484 0.04813,8.052659 0.08222,11.550706 0.04925,5.052288 -0.02994,6.458817 -0.385137,6.840257 -0.347963,0.37368 -1.459581,0.48762 -5.011786,0.51369 -4.779486,0.0351 -5.706465,-0.12482 -5.781938,-0.99745 z m 5.752568,-1.661652 c 1.488668,-0.01218 2.725392,-0.0658 2.748267,-0.119143 0.05743,-0.133916 -0.213333,-39.059047 -0.277315,-39.867255 l -0.05158,-0.651502 -2.804667,0.0024 c -1.542567,0.0013 -2.864903,0.139447 -2.938523,0.306951 -0.237692,0.540818 0.137685,40.145095 0.381501,40.249654 0.129601,0.05558 1.453641,0.09108 2.942314,0.0789 z m 13.787734,1.697782 c -0.124979,-4.648471 -0.173211,-24.654632 -0.06072,-25.189374 0.181881,-0.864614 0.578553,-0.948519 4.415734,-0.93402 1.645579,0.0062 2.969781,0.151073 3.200152,0.350068 0.506855,0.437823 0.744081,26.129776 0.246584,26.705716 -0.408347,0.47273 -6.044115,0.61303 -7.063581,0.17584 -0.544923,-0.23368 -0.721788,-0.49921 -0.738164,-1.10823 z m 4.989884,-1.303042 c 0.359237,-0.03789 0.430095,-2.086509 0.380748,-11.008137 -0.03335,-6.028869 -0.07685,-11.002496 -0.09668,-11.052503 -0.107358,-0.270783 -2.77441,-0.0087 -2.781349,0.27333 -0.0045,0.183249 0.0203,4.490963 0.05514,9.572695 0.03484,5.081741 0.06296,9.915319 0.06251,10.741287 l -8.33e-4,1.501761 0.969545,0.0091 c 0.533248,0.005 1.168164,-0.0119 1.410918,-0.03749 z m 4.6856,1.277932 c -0.06109,-0.382454 -0.146364,-6.259065 -0.189509,-13.059127 -0.05428,-8.554942 0.03517,-12.512898 0.290368,-12.84788 0.282004,-0.370173 1.101067,-0.48854 3.479821,-0.502893 3.63253,-0.02192 4.168707,0.13793 4.247927,1.266393 0.102483,1.459886 0.235387,24.188603 0.14586,24.944929 -0.05453,0.460658 -0.251933,0.828788 -0.529344,0.987158 -0.536112,0.30604 -6.190017,0.3974 -6.8583,0.11081 -0.261667,-0.11221 -0.525736,-0.51694 -0.586823,-0.89939 z m 4.616306,-1.595673 c 0.453372,-0.02977 0.81056,-0.151672 0.793748,-0.270888 -0.01681,-0.119217 -0.06651,-5.025478 -0.11044,-10.902801 -0.04393,-5.877325 -0.101178,-10.741287 -0.12721,-10.808805 -0.0694,-0.179998 -2.617297,-0.253345 -2.692645,-0.07751 -0.0352,0.08215 -0.04917,2.034173 -0.03105,4.337836 0.08643,10.988138 0.11523,15.541717 0.104652,16.547609 -0.01244,1.183451 0.188124,1.297653 2.062948,1.174562 z m 41.591508,1.259447 c -0.0602,-0.382089 -0.14428,-6.265055 -0.18678,-13.073255 -0.0642,-10.287053 0.002,-12.450566 0.39128,-12.804779 0.64466,-0.586456 6.76133,-0.592733 7.30215,-0.0075 0.25449,0.27539 0.40194,3.417317 0.45294,9.651894 0.12669,15.487701 0.11071,16.571056 -0.25051,16.989226 -0.40011,0.4632 -5.98301,0.63237 -6.96543,0.21107 -0.39354,-0.16877 -0.67568,-0.53552 -0.74365,-0.966656 z m 4.18732,-1.474283 c 0.62993,0.01544 1.15749,-2.78e-4 1.17235,-0.03493 0.0445,-0.10386 -0.12124,-21.904923 -0.16745,-22.020519 -0.0235,-0.05868 -0.64384,-0.09986 -1.37865,-0.09152 -1.1853,0.01346 -1.33868,0.08608 -1.35973,0.643899 -0.0131,0.345797 0.006,4.799017 0.0413,9.896047 0.0358,5.097021 0.0607,9.739062 0.0553,10.315644 -0.0111,1.192343 0.0656,1.252861 1.63685,1.291381 z m 5.40186,1.677259 c -0.32904,-0.480951 -0.4511,-25.291794 -0.12812,-26.044944 0.34882,-0.813391 0.50215,-0.847533 3.85715,-0.8588 2.97757,-0.01 3.67209,0.146192 3.88747,0.874259 0.20113,0.679972 0.34268,25.424594 0.14805,25.882787 -0.2511,0.590618 -1.06612,0.739468 -4.1083,0.749728 -2.8852,0.01 -3.28176,-0.0557 -3.65625,-0.60303 z m 4.0258,-2.0833 c 0.65904,-0.04397 1.20223,-0.232065 1.20709,-0.417983 0.0589,-2.249352 -0.15754,-21.208335 -0.24482,-21.447969 -0.0735,-0.201911 -0.61216,-0.300636 -1.42984,-0.262066 l -1.31186,0.06188 0.043,3.121985 c 0.0237,1.717096 0.0612,6.659964 0.0833,10.98416 0.0221,4.324195 0.13354,7.90217 0.24754,7.951058 0.114,0.04889 0.74648,0.05291 1.40552,0.0089 z m 11.32622,1.469849 c -0.11646,-0.339501 -0.18571,-0.678 -0.15388,-0.752221 0.0318,-0.07422 -0.0143,-9.784625 -0.10247,-21.57867 -0.0882,-11.79405 -0.0738,-21.645648 0.0321,-21.892441 0.25758,-0.600642 0.90039,-0.6826 5.60085,-0.714109 4.00898,-0.02687 5.25469,0.189728 5.4398,0.945852 0.0541,0.221138 0.11819,3.714036 0.14235,7.762 0.0241,4.047959 0.0877,13.772645 0.14114,21.610403 0.0535,7.837765 -0.009,14.499096 -0.13968,14.802959 -0.13031,0.303864 -0.43571,0.611278 -0.67866,0.683148 -0.7615,0.22525 -9.02508,0.19827 -9.56035,-0.0312 -0.28019,-0.12013 -0.60473,-0.496194 -0.72118,-0.835691 z m 8.47083,-7.743648 c -0.0231,-3.359454 -0.0792,-11.629904 -0.12472,-18.378778 -0.0456,-6.748875 -0.0988,-13.141662 -0.11821,-14.206194 l -0.0354,-1.935504 -2.6855,5.76e-4 c -1.47703,3.15e-4 -2.80854,0.04686 -2.9589,0.103421 -0.15036,0.05657 -0.24562,4.247829 -0.21169,9.313909 0.14741,22.009568 0.20354,29.759073 0.22065,30.467002 l 0.0183,0.755691 2.96869,-0.006 2.96869,-0.006 z m 4.07015,8.106399 c -0.22782,-0.407423 -0.31723,-6.059984 -0.44357,-28.043212 -0.0132,-2.301565 -0.0494,-6.592171 -0.0803,-9.534681 -0.0686,-6.528456 0.005,-7.338841 0.68868,-7.593582 0.9375,-0.349244 9.31208,-0.247155 9.95502,0.121358 0.56946,0.326401 0.62322,0.844627 0.66603,6.420633 0.0256,3.336066 0.0639,8.27536 0.0852,10.976204 0.18548,23.583253 0.1637,27.005538 -0.17567,27.594913 -0.33412,0.580197 -0.75659,0.631277 -5.25936,0.635577 -2.69283,0.003 -4.95799,-0.0197 -5.03369,-0.0496 -0.0757,-0.0298 -0.25674,-0.26729 -0.40232,-0.52764 z m 6.34846,-2.05913 c 0.98631,0.0049 1.84599,-0.111738 1.91041,-0.259106 0.0643,-0.147412 0.0539,-8.313454 -0.0234,-18.146863 -0.0773,-9.833405 -0.12883,-18.81314 -0.11456,-19.954971 0.0143,-1.141826 -0.10266,-2.131197 -0.25984,-2.198605 -0.28847,-0.123705 -5.20121,-0.119363 -5.51201,0.0049 -0.21586,0.08629 -0.22494,2.646926 -0.0787,22.211854 0.0665,8.895404 0.11627,16.66113 0.11067,17.257177 l -0.0102,1.083716 1.09219,-0.0035 c 0.6007,-0.0019 1.89916,5.18e-4 2.88547,0.0054 z m 5.9123,1.55932 c -0.0641,-0.383741 -0.15016,-5.958863 -0.19127,-12.389159 -0.0411,-6.430296 -0.10652,-16.119577 -0.14535,-21.531739 -0.0388,-5.41216 0.0257,-10.064781 0.14334,-10.339156 0.29227,-0.68153 0.40954,-0.696647 5.54495,-0.714894 3.11617,-0.01107 4.68332,0.104108 5.03214,0.369846 0.43564,0.331879 0.52854,3.458049 0.66331,22.321102 0.0862,12.064342 0.0371,22.214193 -0.10919,22.55522 -0.18491,0.431188 -0.51437,0.63714 -1.08164,0.67615 -1.83496,0.12619 -9.02624,0.0563 -9.36983,-0.091 -0.20347,-0.0873 -0.42238,-0.472619 -0.48646,-0.85636 z m 5.66074,-1.663371 c 1.45924,-0.0013 2.69953,-0.110396 2.75618,-0.242508 0.0877,-0.204394 -0.10855,-39.89017 -0.19893,-40.236498 -0.0507,-0.194292 -5.80017,-0.150681 -5.88392,0.04463 -0.0415,0.09675 -0.0509,3.019295 -0.0208,6.494528 0.03,3.475232 0.0819,10.346314 0.11519,15.269071 0.0333,4.922753 0.0723,10.574828 0.0865,12.560164 0.0143,1.98534 0.0292,4.172461 0.0331,4.860263 0.004,0.687806 0.10893,1.251029 0.23332,1.251604 0.1244,5.77e-4 1.42011,1.1e-5 2.87936,-0.0013 z m 6.76944,1.524108 c -0.31088,-1.759579 -0.4203,-43.75675 -0.11537,-44.284557 0.29006,-0.50207 0.91555,-0.577465 5.09886,-0.614568 2.62255,-0.02326 4.94907,0.02778 5.17004,0.113409 0.22099,0.08563 0.47104,0.389806 0.55568,0.675936 0.25988,0.87856 0.47941,43.816609 0.22703,44.405133 -0.1302,0.303593 -0.41841,0.59804 -0.64046,0.65432 -0.76904,0.19492 -9.23285,0.1539 -9.70136,-0.047 -0.25883,-0.110995 -0.52632,-0.517189 -0.59442,-0.902653 z m 5.58713,-1.603563 c 1.49602,-0.01441 2.75595,-0.109939 2.79984,-0.21229 0.0756,-0.176192 0.0478,-8.301592 -0.10332,-30.250436 -0.0366,-5.316007 -0.11473,-9.786018 -0.17363,-9.933358 -0.0828,-0.20708 -5.09735,-0.372636 -5.69597,-0.188052 -0.15047,0.04639 -0.15468,0.591076 -0.0843,11.015514 0.0295,4.366916 0.0794,12.529344 0.111,18.138721 0.0604,10.729283 0.0751,11.305495 0.29124,11.398171 0.0743,0.03184 1.35911,0.04614 2.85512,0.03173 z"
       id="path869" />
  </g>
</svg>
